<?xml version="1.0" standalone="no"?>
<!DOCTYPE svg PUBLIC "-//W3C//DTD SVG 20010904//EN"
 "http://www.w3.org/TR/2001/REC-SVG-20010904/DTD/svg10.dtd">
<svg version="1.0" xmlns="http://www.w3.org/2000/svg"
 width="96.000000pt" height="96.000000pt" viewBox="0 0 96.000000 96.000000"
 preserveAspectRatio="xMidYMid meet">

<g transform="translate(0.000000,96.000000) scale(0.100000,-0.100000)"
fill="#5e3aee" stroke="none">
<path d="M150 480 l0 -330 330 0 330 0 0 330 0 330 -330 0 -330 0 0 -330z
m600 0 l0 -270 -270 0 -270 0 0 270 0 270 270 0 270 0 0 -270z"/>
<path d="M362 655 l-93 -44 3 -122 3 -122 95 -53 c52 -30 102 -54 110 -54 8 0
58 24 110 54 l95 53 3 122 3 122 -96 44 c-53 25 -106 45 -118 44 -12 0 -64
-20 -115 -44z m169 -36 c27 -12 49 -25 49 -29 0 -3 -22 -17 -50 -30 l-50 -23
-50 23 c-27 13 -50 27 -50 30 0 6 76 44 98 49 2 1 26 -9 53 -20z m-136 -106
l55 -27 0 -74 0 -73 -60 33 -60 33 0 67 c0 38 2 68 5 68 2 0 29 -12 60 -27z
m235 -41 l0 -67 -60 -33 -60 -33 0 73 0 74 53 26 c28 15 55 27 60 27 4 1 7
-29 7 -67z"/>
</g>
</svg>
