<?xml version="1.0" standalone="no"?>
<!DOCTYPE svg PUBLIC "-//W3C//DTD SVG 20010904//EN"
 "http://www.w3.org/TR/2001/REC-SVG-20010904/DTD/svg10.dtd">
<svg version="1.0" xmlns="http://www.w3.org/2000/svg"
 width="96.000000pt" height="96.000000pt" viewBox="0 0 96.000000 96.000000"
 preserveAspectRatio="xMidYMid meet">

<g transform="translate(0.000000,96.000000) scale(0.100000,-0.100000)"
fill="#000000" stroke="none">
<path d="M120 710 l0 -31 87 3 c85 3 87 3 94 31 l7 27 -94 0 -94 0 0 -30z"/>
<path d="M668 710 l4 -30 84 0 84 0 0 30 0 30 -88 0 -89 0 5 -30z"/>
<path d="M120 590 l0 -30 78 0 77 0 0 30 0 30 -77 0 -78 0 0 -30z"/>
<path d="M695 590 l0 -30 73 0 72 0 0 30 0 30 -72 0 -73 0 0 -30z"/>
<path d="M120 470 l0 -30 88 0 c48 0 104 3 125 6 l38 7 -22 23 c-21 22 -30 24
-126 24 l-103 0 0 -30z"/>
<path d="M621 476 l-22 -23 38 -7 c21 -3 75 -6 121 -6 l82 0 0 30 0 30 -98 0
c-91 0 -100 -2 -121 -24z"/>
<path d="M120 350 c0 -27 3 -30 30 -30 23 0 33 7 45 30 l16 30 -46 0 c-43 0
-45 -1 -45 -30z"/>
<path d="M775 350 c11 -21 23 -30 40 -30 21 0 25 5 25 30 0 28 -2 30 -40 30
l-41 0 16 -30z"/>
<path d="M360 210 l0 -110 130 0 130 0 0 110 0 110 -130 0 -130 0 0 -110z"/>
<path d="M120 230 c0 -32 23 -42 34 -14 11 29 6 44 -14 44 -16 0 -20 -7 -20
-30z"/>
<path d="M810 246 c0 -22 11 -46 21 -46 5 0 9 14 9 30 0 20 -5 30 -15 30 -8 0
-15 -6 -15 -14z"/>
</g>
</svg>
